<svg width="24" height="22" viewBox="0 0 24 22" fill="none" xmlns="http://www.w3.org/2000/svg">
<g id="Vector">
<path d="M16.8 6.94737C18.7096 6.94737 20.5409 7.67932 21.8912 8.98221C23.2414 10.2851 24 12.0522 24 13.8947V22H19.2V13.8947C19.2 13.2806 18.9471 12.6915 18.4971 12.2572C18.047 11.8229 17.4365 11.5789 16.8 11.5789C16.1635 11.5789 15.553 11.8229 15.1029 12.2572C14.6529 12.6915 14.4 13.2806 14.4 13.8947V22H9.6V13.8947C9.6 12.0522 10.3586 10.2851 11.7088 8.98221C13.0591 7.67932 14.8904 6.94737 16.8 6.94737Z" fill="#23657D"/>
<path d="M4.8 8.10526H0V22H4.8V8.10526Z" fill="#23657D"/>
<path d="M2.4 4.63158C3.72548 4.63158 4.8 3.59476 4.8 2.31579C4.8 1.03681 3.72548 0 2.4 0C1.07452 0 0 1.03681 0 2.31579C0 3.59476 1.07452 4.63158 2.4 4.63158Z" fill="#23657D"/>
</g>
</svg>
