<svg width="997" height="2026" viewBox="0 0 997 2026" fill="none" xmlns="http://www.w3.org/2000/svg">
<path fill-rule="evenodd" clip-rule="evenodd" d="M990.852 746.893L675.329 1703.18L101.296 1740.76L115.55 1203.66L122.677 935.105L602.229 1427.18L366.284 536.328L614.427 454.693L813.33 746.893H990.852ZM8 2020H990.852V1890.42L341.664 1861.59L8 2020Z" fill="#9C9080" fill-opacity="0.6"/>
<path d="M614.427 454.693L900.795 164.438L699.948 97.4889L614.427 454.693Z" fill="#9C9080" fill-opacity="0.6"/>
<path d="M900.795 164.438L990.852 746.893M900.795 164.438L614.427 454.693M900.795 164.438L699.948 97.4889M990.852 746.893L675.329 1703.18M990.852 746.893H813.33M675.329 1703.18L990.852 1890.42M675.329 1703.18L101.296 1740.76M675.329 1703.18L602.229 1427.18M675.329 1703.18L341.664 1861.59M675.329 1703.18L813.33 746.893M990.852 1890.42V2020H8M990.852 1890.42L341.664 1861.59M8 2020L101.296 1740.76M8 2020L341.664 1861.59M101.296 1740.76L115.55 1203.66M129.804 666.554L410.989 7L675.329 89.2823L699.948 97.4889M129.804 666.554L366.284 536.328M129.804 666.554L122.677 935.105M614.427 454.693L366.284 536.328M614.427 454.693L813.33 746.893M614.427 454.693L699.948 97.4889M366.284 536.328L602.229 1427.18M115.55 1203.66L602.229 1427.18M115.55 1203.66L122.677 935.105M602.229 1427.18L122.677 935.105" stroke="#666563" stroke-width="10.3663"/>
</svg>
