<svg width="997" height="2026" viewBox="0 0 997 2026" fill="none" xmlns="http://www.w3.org/2000/svg">
<path d="M900.795 164.438L990.852 746.893L675.329 1703.18L990.852 1890.42V2020H8L101.296 1740.76L115.55 1203.66L122.677 935.105L129.804 666.554L410.989 7L675.329 89.2823L699.948 97.4889L900.795 164.438Z" fill="#DBCEBE"/>
<path fill-rule="evenodd" clip-rule="evenodd" d="M990.852 746.893L675.329 1703.18L101.296 1740.76L115.55 1203.66L122.677 935.105L602.229 1427.18L366.284 536.328L614.427 454.693L813.33 746.893H990.852ZM8 2020H990.852V1890.42L341.664 1861.59L8 2020Z" fill="#9C9080" fill-opacity="0.6"/>
<path d="M614.427 454.693L900.795 164.438L699.948 97.4889L614.427 454.693Z" fill="#9C9080" fill-opacity="0.6"/>
<path d="M900.795 164.438L990.852 746.893M900.795 164.438L614.427 454.693M900.795 164.438L699.948 97.4889M990.852 746.893L675.329 1703.18M990.852 746.893H813.33M675.329 1703.18L990.852 1890.42M675.329 1703.18L101.296 1740.76M675.329 1703.18L602.229 1427.18M675.329 1703.18L341.664 1861.59M675.329 1703.18L813.33 746.893M990.852 1890.42V2020H8M990.852 1890.42L341.664 1861.59M8 2020L101.296 1740.76M8 2020L341.664 1861.59M101.296 1740.76L115.55 1203.66M129.804 666.554L410.989 7L675.329 89.2823L699.948 97.4889M129.804 666.554L366.284 536.328M129.804 666.554L122.677 935.105M614.427 454.693L366.284 536.328M614.427 454.693L813.33 746.893M614.427 454.693L699.948 97.4889M366.284 536.328L602.229 1427.18M115.55 1203.66L602.229 1427.18M115.55 1203.66L122.677 935.105M602.229 1427.18L122.677 935.105" stroke="#666563" stroke-width="10.3663"/>
<path d="M788.588 1208.01C788.679 1208.13 790.604 1210.22 790.957 1211.25C793.093 1212.27 795.812 1212.92 798.147 1213.47C799.506 1213.79 801.276 1213.78 802.498 1214.36C803.939 1215.05 806.676 1215.97 808.294 1215.97C810.351 1215.97 811.937 1215.95 813.876 1215.4C815.476 1214.94 816.506 1213.47 817.656 1212.36C820.168 1209.95 821.58 1208.41 821.58 1204.73C821.58 1200.12 819.912 1195.64 818.031 1191.5C815.86 1186.72 815.438 1180.93 816.836 1175.84C817.561 1173.2 818.867 1170.23 818.958 1167.5C819.034 1165.21 818.062 1162.78 817.05 1160.75C814.829 1156.31 808.047 1154.57 803.675 1153.05C799.925 1151.75 793.439 1152.63 790.764 1155.87C789.215 1157.74 788.687 1160.46 787.875 1162.72C787.058 1164.99 786.625 1167.32 785.931 1169.62C784.438 1174.56 782.8 1179.43 781.134 1184.31C779.661 1188.62 780.175 1194.24 782.168 1198.31C783.897 1201.84 786.173 1204.93 788.588 1208.01Z" fill="#C52D6D"/>
<path d="M790.764 1211.79C791.915 1211.65 788.706 1208.16 788.588 1208.01C786.173 1204.93 783.897 1201.84 782.168 1198.31C780.175 1194.24 779.661 1188.62 781.134 1184.31C782.8 1179.43 784.438 1174.56 785.931 1169.62C786.625 1167.32 787.058 1164.99 787.875 1162.72C788.687 1160.46 789.215 1157.74 790.764 1155.87C793.439 1152.63 799.925 1151.75 803.675 1153.05C808.047 1154.57 814.829 1156.31 817.05 1160.75C818.062 1162.78 819.034 1165.21 818.958 1167.5C818.867 1170.23 817.561 1173.2 816.836 1175.84C815.438 1180.93 815.86 1186.72 818.031 1191.5C819.912 1195.64 821.58 1200.12 821.58 1204.73C821.58 1208.41 820.168 1209.95 817.656 1212.36C816.506 1213.47 815.476 1214.94 813.876 1215.4C811.937 1215.95 810.351 1215.97 808.294 1215.97C806.676 1215.97 803.939 1215.05 802.498 1214.36C801.276 1213.78 799.506 1213.79 798.147 1213.47C795.741 1212.9 792.927 1212.23 790.764 1211.15" stroke="#C52D6D" stroke-width="3.69863" stroke-linecap="round"/>
<circle cx="801.092" cy="1189.46" r="5.08561" fill="#33302C"/>
<path d="M348.869 422.643C349.083 422.916 353.608 427.841 354.439 430.244C359.459 432.657 365.853 434.18 371.341 435.472C374.536 436.223 378.697 436.199 381.571 437.568C384.957 439.181 391.392 441.341 395.196 441.341C400.033 441.341 403.762 441.301 408.319 439.999C412.082 438.924 414.503 435.476 417.207 432.872C423.111 427.187 426.43 423.57 426.43 414.928C426.43 404.091 422.51 393.55 418.087 383.82C412.983 372.59 411.992 358.972 415.278 347.01C416.983 340.806 420.053 333.822 420.267 327.389C420.446 322.025 418.16 316.297 415.782 311.541C410.559 301.096 394.616 296.995 384.338 293.43C375.522 290.371 360.273 292.441 353.984 300.054C350.343 304.461 349.102 310.848 347.192 316.153C345.271 321.489 344.254 326.972 342.622 332.378C339.113 344.003 335.263 355.45 331.345 366.924C327.883 377.063 329.091 390.261 333.776 399.835C337.841 408.141 343.191 415.386 348.869 422.643Z" fill="#C52D6D"/>
<path d="M353.984 431.531C356.69 431.192 349.147 422.998 348.869 422.642C343.191 415.386 337.841 408.141 333.776 399.835C329.091 390.261 327.883 377.063 331.345 366.924C335.263 355.45 339.113 344.003 342.622 332.378C344.254 326.972 345.271 321.489 347.192 316.153C349.102 310.848 350.343 304.461 353.984 300.054C360.273 292.441 375.522 290.371 384.338 293.43C394.616 296.995 410.559 301.096 415.782 311.541C418.16 316.297 420.446 322.025 420.267 327.389C420.053 333.822 416.983 340.806 415.278 347.01C411.992 358.972 412.983 372.59 418.087 383.82C422.51 393.55 426.43 404.091 426.43 414.928C426.43 423.57 423.111 427.187 417.207 432.872C414.503 435.476 412.082 438.924 408.319 439.999C403.762 441.301 400.033 441.341 395.196 441.341C391.392 441.341 384.957 439.181 381.571 437.568C378.697 436.199 374.536 436.223 371.341 435.472C365.686 434.141 359.069 432.564 353.984 430.021" stroke="#C52D6D" stroke-width="8.69522" stroke-linecap="round"/>
<circle cx="378.265" cy="379.025" r="11.9559" fill="#33302C"/>
<path d="M722.358 210.651C722.293 210.856 721.368 214.885 720.435 216.149C720.963 219.552 722.425 223.342 723.689 226.59C724.424 228.481 725.893 230.593 726.202 232.536C726.566 234.826 727.718 238.86 729.049 240.798C730.743 243.262 732.068 245.148 734.327 247.014C736.192 248.555 738.796 248.581 741.069 249.047C746.032 250.065 749.037 250.49 753.44 247.464C758.961 243.67 762.959 237.983 766.367 232.324C770.301 225.792 776.892 220.52 784.137 218.006C787.895 216.703 792.527 215.822 795.88 213.679C798.675 211.893 800.792 208.723 802.383 205.846C805.876 199.529 802.384 189.971 800.602 183.487C799.074 177.925 792.681 170.881 786.601 170.342C783.081 170.03 779.394 171.633 776.022 172.518C772.631 173.407 769.481 174.808 766.156 175.869C759.006 178.151 751.826 180.197 744.609 182.218C738.231 184.003 731.931 189.239 728.693 194.978C725.885 199.956 724.066 205.218 722.358 210.651Z" fill="#C52D6D"/>
<path d="M719.62 216.368C720.74 217.628 722.274 210.917 722.358 210.651C724.066 205.218 725.885 199.956 728.693 194.978C731.931 189.239 738.231 184.003 744.609 182.217C751.826 180.197 759.006 178.151 766.156 175.869C769.481 174.808 772.631 173.407 776.022 172.518C779.394 171.633 783.081 170.03 786.601 170.342C792.681 170.881 799.074 177.925 800.602 183.487C802.384 189.971 805.876 199.529 802.383 205.846C800.792 208.723 798.675 211.893 795.88 213.679C792.527 215.822 787.895 216.703 784.137 218.006C776.892 220.52 770.301 225.792 766.367 232.324C762.959 237.983 758.961 243.67 753.44 247.464C749.037 250.49 746.032 250.065 741.069 249.047C738.796 248.581 736.192 248.555 734.327 247.014C732.068 245.148 730.743 243.262 729.049 240.798C727.718 238.86 726.566 234.826 726.202 232.536C725.893 230.593 724.424 228.481 723.689 226.59C722.387 223.244 720.874 219.321 720.389 215.84" stroke="#C52D6D" stroke-width="5.37484" stroke-linecap="round"/>
<circle cx="754.87" cy="210.357" r="7.39041" transform="rotate(55.505 754.87 210.357)" fill="#33302C"/>
<path d="M243.621 681.92C243.327 682.105 237.961 686.096 235.485 686.674C232.566 691.419 230.39 697.62 228.539 702.946C227.461 706.046 227.055 710.187 225.397 712.904C223.442 716.106 220.629 722.283 220.235 726.067C219.736 730.878 219.39 734.59 220.214 739.258C220.894 743.112 224.073 745.876 226.384 748.835C231.429 755.295 234.683 758.97 243.279 759.863C254.059 760.983 264.948 758.173 275.083 754.78C286.78 750.863 300.427 751.285 311.986 755.79C317.981 758.126 324.61 761.901 330.987 762.78C336.304 763.512 342.237 761.829 347.213 759.955C358.142 755.84 363.868 740.406 368.477 730.552C372.43 722.099 371.947 706.718 365.025 699.676C361.018 695.599 354.794 693.705 349.714 691.257C344.605 688.795 339.256 687.216 334.048 685.035C322.848 680.343 311.86 675.33 300.852 670.247C291.126 665.756 277.873 665.594 267.866 669.265C259.185 672.449 251.425 677.022 243.621 681.92Z" fill="#C52D6D"/>
<path d="M234.252 686.089C234.309 688.815 243.239 682.16 243.621 681.92C251.425 677.022 259.185 672.449 267.866 669.265C277.873 665.594 291.126 665.756 300.852 670.247C311.86 675.33 322.848 680.343 334.048 685.035C339.256 687.216 344.605 688.795 349.714 691.257C354.794 693.705 361.018 695.599 365.025 699.676C371.947 706.718 372.43 722.099 368.477 730.552C363.868 740.406 358.142 755.84 347.213 759.955C342.237 761.829 336.304 763.512 330.987 762.78C324.61 761.901 317.981 758.126 311.986 755.79C300.427 751.285 286.78 750.863 275.083 754.78C264.948 758.173 254.059 760.983 243.279 759.863C234.683 758.97 231.429 755.295 226.384 748.835C224.073 745.876 220.894 743.112 220.214 739.258C219.39 734.59 219.736 730.878 220.235 726.067C220.629 722.283 223.442 716.106 225.397 712.904C227.055 710.187 227.461 706.046 228.539 702.946C230.447 697.458 232.699 691.04 235.753 686.245" stroke="#C52D6D" stroke-width="8.69522" stroke-linecap="round"/>
<circle cx="283.968" cy="715.666" r="11.9559" transform="rotate(95.9316 283.968 715.666)" fill="#33302C"/>
<path d="M869.774 639.038C869.988 639.312 874.513 644.237 875.343 646.64C880.364 649.053 886.758 650.576 892.246 651.867C895.441 652.619 899.602 652.595 902.476 653.964C905.862 655.576 912.297 657.737 916.101 657.737C920.938 657.737 924.667 657.697 929.224 656.395C932.987 655.32 935.407 651.872 938.112 649.268C944.016 643.583 947.335 639.966 947.335 631.324C947.335 620.487 943.415 609.945 938.992 600.216C933.888 588.986 932.897 575.368 936.183 563.406C937.888 557.201 940.958 550.218 941.172 543.785C941.351 538.421 939.064 532.693 936.686 527.937C931.464 517.492 915.52 513.391 905.243 509.826C896.427 506.767 881.178 508.837 874.889 516.45C871.248 520.857 870.007 527.243 868.097 532.549C866.176 537.885 865.159 543.368 863.527 548.774C860.018 560.398 856.167 571.846 852.249 583.32C848.787 593.459 849.996 606.657 854.681 616.231C858.746 624.537 864.095 631.782 869.774 639.038Z" fill="#C52D6D"/>
<path d="M874.889 647.926C877.595 647.588 870.052 639.394 869.774 639.038C864.095 631.782 858.746 624.537 854.681 616.231C849.996 606.657 848.787 593.459 852.249 583.32C856.167 571.846 860.018 560.398 863.527 548.774C865.159 543.368 866.176 537.885 868.097 532.549C870.007 527.243 871.248 520.857 874.889 516.45C881.178 508.837 896.427 506.767 905.243 509.826C915.52 513.391 931.464 517.492 936.686 527.937C939.064 532.693 941.351 538.421 941.172 543.785C940.958 550.218 937.888 557.201 936.183 563.406C932.897 575.368 933.888 588.986 938.992 600.216C943.415 609.945 947.335 620.487 947.335 631.324C947.335 639.966 944.016 643.583 938.112 649.268C935.407 651.872 932.987 655.32 929.224 656.395C924.667 657.697 920.938 657.737 916.101 657.737C912.297 657.737 905.862 655.576 902.476 653.964C899.602 652.595 895.441 652.619 892.246 651.867C886.591 650.537 879.974 648.96 874.889 646.417" stroke="#C52D6D" stroke-width="8.69522" stroke-linecap="round"/>
<circle cx="899.17" cy="595.42" r="11.9559" fill="#33302C"/>
<path d="M926.771 829.995C926.657 829.666 923.981 823.537 923.977 820.995C920.014 817.08 914.463 813.56 909.694 810.554C906.917 808.804 902.974 807.473 900.702 805.244C898.024 802.618 892.642 798.482 889.045 797.244C884.471 795.671 880.932 794.496 876.199 794.245C872.291 794.037 868.881 796.51 865.476 798.093C858.044 801.549 853.729 803.889 850.918 812.061C847.393 822.31 847.671 833.553 848.689 844.192C849.863 856.471 846.371 869.671 839.372 879.914C835.742 885.226 830.567 890.831 828.272 896.845C826.358 901.859 826.657 908.019 827.359 913.29C828.9 924.866 842.643 933.93 851.202 940.645C858.544 946.404 873.637 949.407 882.06 944.254C886.936 941.27 890.187 935.635 893.719 931.239C897.271 926.818 900.016 921.964 903.318 917.383C910.417 907.532 917.782 897.959 925.219 888.384C931.79 879.922 934.941 867.048 933.624 856.471C932.483 847.295 929.78 838.703 926.771 829.995Z" fill="#C52D6D"/>
<path d="M924.825 819.926C922.156 819.366 926.623 829.568 926.771 829.995C929.78 838.703 932.483 847.295 933.624 856.471C934.941 867.048 931.79 879.922 925.219 888.384C917.782 897.959 910.417 907.532 903.318 917.383C900.016 921.964 897.271 926.818 893.719 931.239C890.187 935.635 886.936 941.27 882.06 944.254C873.637 949.407 858.544 946.404 851.202 940.645C842.643 933.93 828.9 924.866 827.359 913.29C826.657 908.019 826.358 901.859 828.272 896.845C830.567 890.831 835.742 885.226 839.372 879.914C846.371 869.671 849.863 856.471 848.689 844.192C847.671 833.553 847.393 822.31 850.918 812.061C853.729 803.889 858.044 801.549 865.476 798.093C868.881 796.51 872.291 794.037 876.199 794.245C880.932 794.496 884.471 795.671 889.045 797.244C892.642 798.482 898.024 802.618 900.702 805.244C902.974 807.473 906.917 808.804 909.694 810.554C914.609 813.652 920.352 817.295 924.334 821.354" stroke="#C52D6D" stroke-width="8.69522" stroke-linecap="round"/>
<circle cx="884.786" cy="861.679" r="11.9559" transform="rotate(-161.018 884.786 861.679)" fill="#33302C"/>
<path d="M309.192 1204.98C308.971 1205.04 304.835 1206.56 303.163 1206.47C300.433 1208.92 297.902 1212.44 295.739 1215.46C294.48 1217.22 293.452 1219.76 291.897 1221.17C290.065 1222.83 287.136 1226.21 286.182 1228.53C284.97 1231.47 284.059 1233.76 283.71 1236.86C283.422 1239.42 284.917 1241.76 285.826 1244.06C287.812 1249.09 289.184 1252.02 294.451 1254.18C301.057 1256.9 308.465 1257.15 315.504 1256.9C323.628 1256.6 332.176 1259.41 338.644 1264.41C341.998 1267.01 345.485 1270.63 349.352 1272.37C352.577 1273.83 356.641 1273.87 360.136 1273.61C367.812 1273.05 374.308 1264.36 379.058 1258.99C383.132 1254.38 385.692 1244.57 382.629 1238.82C380.855 1235.5 377.274 1233.14 374.519 1230.65C371.748 1228.14 368.661 1226.15 365.775 1223.8C359.57 1218.74 353.557 1213.53 347.546 1208.26C342.234 1203.61 333.887 1201.04 326.877 1201.49C320.795 1201.89 315.038 1203.33 309.192 1204.98Z" fill="#C52D6D"/>
<path d="M302.492 1205.87C302.02 1207.6 308.906 1205.06 309.192 1204.98C315.038 1203.33 320.795 1201.89 326.877 1201.49C333.887 1201.04 342.234 1203.61 347.546 1208.26C353.557 1213.53 359.57 1218.74 365.775 1223.8C368.661 1226.15 371.748 1228.14 374.519 1230.65C377.274 1233.14 380.855 1235.5 382.629 1238.82C385.692 1244.57 383.132 1254.38 379.058 1258.99C374.308 1264.36 367.812 1273.05 360.136 1273.61C356.641 1273.87 352.577 1273.83 349.352 1272.37C345.485 1270.63 341.998 1267.01 338.644 1264.41C332.176 1259.41 323.628 1256.6 315.504 1256.9C308.465 1257.15 301.057 1256.9 294.451 1254.18C289.184 1252.02 287.812 1249.09 285.826 1244.06C284.917 1241.76 283.422 1239.42 283.71 1236.86C284.059 1233.76 284.97 1231.47 286.182 1228.53C287.136 1226.21 290.065 1222.83 291.897 1221.17C293.452 1219.76 294.48 1217.22 295.739 1215.46C297.968 1212.34 300.588 1208.71 303.412 1206.24" stroke="#C52D6D" stroke-width="5.73054" stroke-linecap="round"/>
<circle cx="328.409" cy="1233.83" r="7.8795" transform="rotate(112.356 328.409 1233.83)" fill="#33302C"/>
<path d="M362.302 990.469C340.816 979.796 323.143 974.13 301.69 963.403C295.805 959.872 284.696 963.411 281.397 969.14C280.857 970.078 279.415 971.364 278.528 972.009C277.473 972.777 276.874 974.782 275.872 975.834C272.78 979.081 272.494 982.64 271.569 986.936C269.167 998.1 275.453 1009.8 281.397 1018.84C286.195 1026.13 291.762 1030.4 299.299 1034.64C306.156 1038.5 313.21 1041.73 320.787 1043.94C325.53 1045.32 330.217 1046.87 335.05 1047.92C339.359 1048.86 343.998 1048.61 348.384 1048.48C357.812 1048.2 366.254 1043.78 375.131 1041.09C379.432 1039.79 385.004 1039.07 388.704 1036.34C392.019 1033.9 394.156 1028.93 395.371 1025.13C396.638 1021.17 397.236 1017.15 396.725 1012.97C396.295 1009.45 393.718 1003.21 390.723 1001.15C388.067 999.315 384.576 997.904 381.532 996.87C374.94 994.631 368.644 993.619 362.302 990.469Z" fill="#F1AA68" stroke="#F1AA68" stroke-width="8.69522" stroke-linecap="round"/>
<circle cx="327.215" cy="1009.45" r="11.9559" fill="#33302C"/>
<path d="M809.377 1033.5C803.621 1049.34 801.06 1062.13 795.264 1077.95C793.263 1082.34 796.61 1089.82 800.87 1091.67C801.567 1091.97 802.579 1092.88 803.099 1093.44C803.719 1094.12 805.166 1094.38 805.979 1095C808.49 1096.9 810.997 1096.82 814.07 1097.12C822.054 1097.92 829.727 1092.61 835.565 1087.75C840.279 1083.82 842.821 1079.6 845.186 1074C847.338 1068.91 849.036 1063.73 849.981 1058.27C850.573 1054.85 851.285 1051.45 851.637 1047.99C851.951 1044.91 851.412 1041.69 850.975 1038.64C850.034 1032.08 846.283 1026.54 843.709 1020.55C842.462 1017.65 841.514 1013.82 839.319 1011.45C837.352 1009.33 833.713 1008.23 830.967 1007.68C828.103 1007.11 825.245 1007.01 822.367 1007.69C819.943 1008.27 815.795 1010.56 814.589 1012.82C813.52 1014.81 812.81 1017.36 812.329 1019.57C811.286 1024.35 811.076 1028.82 809.377 1033.5Z" fill="#F1AA68" stroke="#F1AA68" stroke-width="6.10919" stroke-linecap="round"/>
<circle cx="825.394" cy="1056.5" r="8.40014" transform="rotate(-96.4482 825.394 1056.5)" fill="#33302C"/>
<path d="M522.261 643.623C543.303 625.495 557.291 609.185 578.376 591.116C584.787 586.424 586.004 572.981 581.374 566.887C580.616 565.889 579.891 563.772 579.602 562.537C579.257 561.066 577.387 559.526 576.715 557.984C574.64 553.226 570.972 551.322 566.803 548.404C555.971 540.824 540.661 542.273 528.351 544.555C518.413 546.397 511.355 550.417 503.445 556.554C496.249 562.136 489.633 568.212 483.87 575.302C480.263 579.741 476.503 584.045 473.21 588.73C470.275 592.906 468.454 597.967 466.623 602.706C462.687 612.891 463.608 623.884 462.482 634.561C461.937 639.734 460.209 646.006 461.456 651.179C462.572 655.814 466.915 660.327 470.419 663.329C474.074 666.46 478.101 668.907 482.789 670.241C486.739 671.364 494.547 671.415 498.098 669.147C501.245 667.137 504.32 664.046 506.79 661.264C512.141 655.236 516.051 648.973 522.261 643.623Z" fill="#F1AA68" stroke="#F1AA68" stroke-width="10.0665" stroke-linecap="round"/>
<circle cx="517.782" cy="597.659" r="13.8414" transform="rotate(112.84 517.782 597.659)" fill="#33302C"/>
<path d="M481.514 1590.42C460.028 1579.74 442.355 1574.08 420.902 1563.35C415.017 1559.82 403.908 1563.36 400.609 1569.09C400.069 1570.03 398.627 1571.31 397.74 1571.96C396.685 1572.72 396.086 1574.73 395.084 1575.78C391.992 1579.03 391.706 1582.59 390.781 1586.88C388.379 1598.05 394.665 1609.75 400.609 1618.78C405.408 1626.08 410.974 1630.35 418.511 1634.59C425.368 1638.44 432.423 1641.67 439.999 1643.88C444.742 1645.27 449.429 1646.82 454.263 1647.87C458.571 1648.81 463.21 1648.56 467.596 1648.43C477.024 1648.15 485.466 1643.73 494.343 1641.04C498.644 1639.74 504.216 1639.01 507.916 1636.29C511.231 1633.85 513.368 1628.87 514.583 1625.08C515.85 1621.12 516.448 1617.09 515.938 1612.91C515.507 1609.39 512.93 1603.16 509.935 1601.09C507.28 1599.26 503.788 1597.85 500.745 1596.82C494.152 1594.58 487.856 1593.57 481.514 1590.42Z" fill="#F1AA68" stroke="#F1AA68" stroke-width="8.69522" stroke-linecap="round"/>
<circle cx="446.427" cy="1609.39" r="11.9559" fill="#33302C"/>
<path d="M570.799 1835.8C594.015 1841.84 612.475 1843.77 635.671 1849.87C642.154 1852.12 652.303 1846.38 654.358 1840.1C654.694 1839.07 655.842 1837.52 656.578 1836.7C657.454 1835.74 657.629 1833.65 658.394 1832.42C660.756 1828.6 660.307 1825.06 660.332 1820.67C660.396 1809.25 651.846 1799.08 644.178 1791.46C637.987 1785.3 631.663 1782.26 623.418 1779.66C615.917 1777.29 608.35 1775.57 600.482 1774.96C595.556 1774.58 590.65 1774.02 585.704 1773.98C581.296 1773.95 576.805 1775.14 572.539 1776.17C563.369 1778.37 556.011 1784.43 547.872 1788.87C543.928 1791.03 538.624 1792.88 535.561 1796.31C532.816 1799.38 531.743 1804.68 531.331 1808.64C530.902 1812.78 531.141 1816.84 532.497 1820.83C533.64 1824.18 537.439 1829.76 540.794 1831.17C543.768 1832.41 547.474 1833.08 550.665 1833.47C557.577 1834.31 563.947 1834.01 570.799 1835.8Z" fill="#F1AA68" stroke="#F1AA68" stroke-width="8.69522" stroke-linecap="round"/>
<circle cx="601.255" cy="1810.03" r="11.9559" transform="rotate(168.18 601.255 1810.03)" fill="#33302C"/>
<path d="M607.394 1179.44C617.797 1201.06 628.266 1216.38 638.61 1238.02C641.086 1244.42 652.027 1248.45 658.149 1245.96C659.151 1245.55 661.079 1245.42 662.175 1245.46C663.479 1245.5 665.183 1244.28 666.62 1244.07C671.054 1243.4 673.466 1240.77 676.834 1237.95C685.586 1230.61 687.81 1217.52 688.667 1206.74C689.359 1198.03 687.588 1191.24 684.244 1183.27C681.201 1176.02 677.616 1169.13 672.994 1162.74C670.1 1158.73 667.353 1154.63 664.183 1150.83C661.358 1147.45 657.544 1144.79 654.002 1142.2C646.389 1136.64 637.012 1134.94 628.358 1131.61C624.165 1129.99 619.321 1127.14 614.727 1127.02C610.61 1126.92 605.871 1129.53 602.582 1131.78C599.15 1134.12 596.205 1136.93 594.042 1140.55C592.219 1143.59 590.426 1150.09 591.521 1153.56C592.492 1156.64 594.381 1159.89 596.148 1162.58C599.976 1168.39 604.324 1173.06 607.394 1179.44Z" fill="#F1AA68" stroke="#F1AA68" stroke-width="8.69522" stroke-linecap="round"/>
<circle cx="646.739" cy="1186.01" r="11.9559" transform="rotate(-142.113 646.739 1186.01)" fill="#33302C"/>
<path d="M611.092 867.829C609.143 873.044 606.052 879.418 600.828 881.79C600.635 881.381 599.494 883.56 598.933 883.626C598.205 883.711 596.78 884.87 595.804 885.145C593.089 885.909 590.221 887.821 587.16 888.097C583.037 888.469 580.838 888.474 577.273 886.059C573.683 883.628 572.963 878.863 571.968 874.911C571.116 871.526 563.926 870.321 561.196 870.03C555.913 869.467 550.694 869.569 545.435 869.35C538.47 869.059 530.436 869.098 523.727 866.95C516.416 864.609 509.154 857.121 507.37 849.711C505.323 841.206 502.942 831.671 505.709 823.027C506.768 819.719 509.643 817.631 511.761 815.056C515.805 810.135 521.466 806.532 525.319 801.574C534.404 789.881 545.125 780.826 558.535 774.43C568.62 769.619 576.729 768.839 587.185 772.815C591.746 774.549 597.485 779.678 599.975 783.871C603.175 789.258 597.14 796.976 595.199 801.989C592.319 809.425 589.61 817.215 587.434 824.891C585.957 830.099 583.211 837.293 584.06 842.775C584.598 846.257 589.489 848.972 592.736 849.414C597.806 850.106 602.808 850.792 607.252 853.567C612.457 856.819 613.09 862.485 611.092 867.829Z" fill="#23657D"/>
<path d="M600.49 881.937C605.919 879.692 609.101 873.155 611.092 867.829C613.09 862.485 612.457 856.819 607.252 853.567C602.808 850.792 597.806 850.106 592.736 849.414C589.489 848.972 584.598 846.257 584.06 842.775C583.211 837.293 585.957 830.099 587.434 824.891C589.61 817.215 592.319 809.425 595.199 801.989C597.14 796.976 603.175 789.258 599.975 783.871C597.485 779.678 591.746 774.549 587.185 772.815C576.729 768.839 568.62 769.619 558.535 774.43C545.125 780.826 534.404 789.881 525.319 801.574C521.466 806.532 515.805 810.135 511.761 815.056C509.643 817.631 506.768 819.719 505.709 823.027C502.942 831.671 505.323 841.206 507.37 849.711C509.154 857.121 516.416 864.609 523.727 866.95C530.436 869.098 538.47 869.059 545.435 869.35C550.694 869.569 555.913 869.467 561.196 870.03C563.926 870.321 571.116 871.526 571.968 874.911C572.963 878.863 573.683 883.628 577.273 886.059C580.838 888.474 583.037 888.469 587.16 888.097C590.221 887.821 593.089 885.909 595.804 885.145C596.78 884.87 598.205 883.711 598.933 883.626C599.577 883.55 600.987 880.686 600.847 882.16" stroke="#23657D" stroke-width="8.69522" stroke-linecap="round"/>
<circle cx="556.454" cy="826.299" r="11.9559" transform="rotate(121.991 556.454 826.299)" fill="#33302C"/>
<path d="M486.353 1535.51C480.903 1534.37 474.135 1532.28 471 1527.47C471.376 1527.22 469.049 1526.42 468.9 1525.88C468.706 1525.17 467.345 1523.94 466.925 1523.02C465.759 1520.45 463.436 1517.9 462.701 1514.92C461.71 1510.9 461.373 1508.72 463.221 1504.84C465.082 1500.92 469.683 1499.49 473.439 1497.91C476.657 1496.55 476.762 1489.26 476.637 1486.52C476.395 1481.21 475.506 1476.07 474.928 1470.84C474.163 1463.91 472.91 1455.97 474.02 1449.02C475.229 1441.44 481.534 1433.13 488.589 1430.24C496.687 1426.93 505.753 1423.14 514.716 1424.57C518.146 1425.12 520.644 1427.64 523.51 1429.35C528.985 1432.6 533.402 1437.65 538.886 1440.71C551.817 1447.93 562.388 1457.15 570.737 1469.44C577.017 1478.69 579.013 1486.58 576.663 1497.52C575.638 1502.29 571.435 1508.74 567.666 1511.84C562.825 1515.81 554.284 1511.01 549.035 1509.85C541.249 1508.13 533.139 1506.63 525.222 1505.64C519.851 1504.96 512.325 1503.34 507.033 1505C503.673 1506.06 501.729 1511.31 501.782 1514.58C501.864 1519.7 501.942 1524.75 499.87 1529.56C497.442 1535.2 491.937 1536.68 486.353 1535.51Z" fill="#23657D"/>
<path d="M470.804 1527.16C473.844 1532.19 480.786 1534.35 486.353 1535.51C491.937 1536.68 497.442 1535.2 499.87 1529.56C501.942 1524.75 501.864 1519.7 501.782 1514.58C501.729 1511.31 503.673 1506.06 507.033 1505C512.325 1503.34 519.851 1504.96 525.222 1505.64C533.139 1506.63 541.249 1508.13 549.035 1509.85C554.284 1511.01 562.825 1515.81 567.666 1511.84C571.435 1508.74 575.638 1502.29 576.663 1497.52C579.013 1486.58 577.017 1478.69 570.737 1469.44C562.388 1457.15 551.817 1447.93 538.886 1440.71C533.402 1437.65 528.985 1432.6 523.51 1429.35C520.644 1427.64 518.146 1425.12 514.716 1424.57C505.753 1423.14 496.687 1426.93 488.589 1430.24C481.534 1433.13 475.229 1441.44 474.02 1449.02C472.91 1455.97 474.163 1463.91 474.928 1470.84C475.506 1476.07 476.395 1481.21 476.637 1486.52C476.762 1489.26 476.657 1496.55 473.439 1497.91C469.683 1499.49 465.082 1500.92 463.221 1504.84C461.373 1508.72 461.71 1510.9 462.701 1514.92C463.436 1517.9 465.759 1520.45 466.925 1523.02C467.345 1523.94 468.706 1525.17 468.9 1525.88C469.072 1526.5 472.116 1527.46 470.638 1527.55" stroke="#23657D" stroke-width="8.69522" stroke-linecap="round"/>
<circle cx="519.15" cy="1475.23" r="11.9559" transform="rotate(-156.7 519.15 1475.23)" fill="#33302C"/>
<path d="M209.808 1869.46C206.694 1874.08 202.199 1879.55 196.565 1880.64C196.473 1880.2 194.854 1882.05 194.294 1881.98C193.566 1881.89 191.909 1882.69 190.896 1882.73C188.078 1882.84 184.843 1884.02 181.802 1883.58C177.706 1882.97 175.566 1882.47 172.664 1879.28C169.743 1876.08 170.156 1871.28 170.112 1867.21C170.074 1863.72 163.365 1860.86 160.779 1859.94C155.774 1858.16 150.676 1857.04 145.614 1855.6C138.91 1853.69 131.09 1851.85 125.068 1848.19C118.506 1844.2 113.196 1835.23 113.194 1827.61C113.191 1818.86 113.104 1809.03 117.815 1801.27C119.618 1798.3 122.902 1796.94 125.562 1794.94C130.645 1791.1 136.991 1788.92 141.896 1785C153.462 1775.75 166.003 1769.45 180.536 1766.37C191.466 1764.05 199.533 1765.18 208.771 1771.49C212.799 1774.25 217.181 1780.57 218.622 1785.23C220.474 1791.22 212.803 1797.31 209.744 1801.73C205.206 1808.29 200.751 1815.23 196.841 1822.19C194.188 1826.9 189.837 1833.26 189.38 1838.79C189.09 1842.3 193.211 1846.08 196.264 1847.27C201.033 1849.13 205.736 1850.96 209.407 1854.7C213.708 1859.08 212.999 1864.73 209.808 1869.46Z" fill="#23657D"/>
<path d="M196.202 1880.7C202.006 1879.79 206.627 1874.18 209.808 1869.46C212.999 1864.73 213.708 1859.08 209.407 1854.7C205.736 1850.96 201.033 1849.13 196.264 1847.27C193.211 1846.08 189.09 1842.3 189.38 1838.79C189.837 1833.26 194.188 1826.9 196.841 1822.19C200.751 1815.23 205.206 1808.29 209.744 1801.73C212.803 1797.31 220.474 1791.22 218.622 1785.23C217.181 1780.57 212.799 1774.25 208.771 1771.49C199.533 1765.18 191.466 1764.05 180.536 1766.37C166.003 1769.45 153.462 1775.75 141.896 1785C136.991 1788.92 130.645 1791.1 125.562 1794.94C122.902 1796.94 119.618 1798.3 117.815 1801.27C113.104 1809.03 113.191 1818.86 113.194 1827.61C113.196 1835.23 118.506 1844.2 125.068 1848.19C131.09 1851.85 138.91 1853.69 145.614 1855.6C150.676 1857.04 155.774 1858.16 160.779 1859.94C163.365 1860.86 170.074 1863.72 170.112 1867.21C170.156 1871.28 169.743 1876.08 172.664 1879.28C175.566 1882.47 177.706 1882.97 181.802 1883.58C184.843 1884.02 188.078 1882.84 190.896 1882.73C191.909 1882.69 193.566 1881.89 194.294 1881.98C194.938 1882.06 196.977 1879.6 196.497 1881" stroke="#23657D" stroke-width="8.69522" stroke-linecap="round"/>
<circle cx="166.39" cy="1816.31" r="11.9559" transform="rotate(135.508 166.39 1816.31)" fill="#33302C"/>
<path d="M336.592 1469.49C338.206 1470.34 339.979 1470.95 341.599 1471.8C343.188 1474.65 345.689 1476.91 348.046 1479.39C351.019 1482.52 353.575 1485.96 356.88 1488.79C360.471 1491.86 364.439 1494.86 368.259 1497.56C371.949 1500.16 377.861 1500.44 381.627 1497.85C384.242 1496.06 386.693 1492.29 387.715 1489.38C388.372 1487.52 389.714 1485.85 390.59 1484.07C391.637 1481.95 391.982 1479.6 392.507 1477.31C393.752 1471.89 394.078 1465.97 394.063 1460.42C394.055 1457.35 394.223 1453.53 393.444 1450.54C391.919 1444.69 390.152 1438.93 383.983 1436.87C379.09 1435.23 381.935 1430.46 381.159 1426.43C379.885 1419.82 379.915 1411.84 374.649 1406.95C372.571 1405.02 370.049 1404.14 367.818 1402.47C365.223 1400.52 362.741 1398.92 359.839 1397.44C357.077 1396.03 352.869 1395.94 349.843 1396.15C345.07 1396.49 342.19 1399.14 338.78 1402.17C334.711 1405.77 332.269 1409.38 329.865 1414.19C328.364 1417.2 328.296 1420.93 326.56 1423.76C323.515 1428.73 319.205 1429.39 314.422 1431.98C309.659 1434.55 309.15 1438.82 309.671 1443.61C310.435 1450.63 315.765 1459.97 322.811 1462.32C324.668 1462.95 326.789 1463.5 328.541 1464.39C331.361 1465.81 333.763 1468.02 336.592 1469.49Z" fill="#37804F"/>
<path d="M343.434 1472.95C341.41 1471.39 338.846 1470.67 336.592 1469.49C333.763 1468.02 331.361 1465.81 328.541 1464.39C326.789 1463.5 324.668 1462.95 322.811 1462.32C315.765 1459.97 310.435 1450.63 309.671 1443.61C309.15 1438.82 309.659 1434.55 314.422 1431.98C319.205 1429.39 323.515 1428.73 326.56 1423.76C328.296 1420.93 328.364 1417.2 329.865 1414.19C332.269 1409.38 334.711 1405.77 338.78 1402.17C342.19 1399.14 345.07 1396.49 349.843 1396.15C352.869 1395.94 357.077 1396.03 359.839 1397.44C362.741 1398.92 365.223 1400.52 367.818 1402.47C370.049 1404.14 372.571 1405.02 374.649 1406.95C379.915 1411.84 379.885 1419.82 381.159 1426.43C381.935 1430.46 379.09 1435.23 383.983 1436.87C390.152 1438.93 391.919 1444.69 393.444 1450.54C394.223 1453.53 394.055 1457.35 394.063 1460.42C394.078 1465.97 393.752 1471.89 392.507 1477.31C391.982 1479.6 391.637 1481.95 390.59 1484.07C389.714 1485.85 388.372 1487.52 387.715 1489.38C386.693 1492.29 384.242 1496.06 381.627 1497.85C377.861 1500.44 371.949 1500.16 368.259 1497.56C364.439 1494.86 360.471 1491.86 356.88 1488.79C353.575 1485.96 351.019 1482.52 348.046 1479.39C345.11 1476.3 341.95 1473.56 340.609 1469.57" stroke="#37804F" stroke-width="8.69522" stroke-linecap="round"/>
<circle cx="354.822" cy="1429.52" r="11.9559" transform="rotate(-117.332 354.822 1429.52)" fill="#33302C"/>
<path d="M452.849 1118.64C451.213 1117.85 449.423 1117.29 447.78 1116.48C446.112 1113.67 443.549 1111.49 441.123 1109.07C438.063 1106.02 435.411 1102.66 432.029 1099.92C428.353 1096.96 424.302 1094.06 420.408 1091.48C416.646 1088.98 410.729 1088.87 407.037 1091.56C404.473 1093.42 402.129 1097.26 401.189 1100.19C400.584 1102.08 399.29 1103.79 398.464 1105.58C397.477 1107.73 397.198 1110.1 396.737 1112.4C395.645 1117.85 395.485 1123.77 395.656 1129.32C395.75 1132.4 395.69 1136.21 396.552 1139.18C398.241 1144.99 400.169 1150.69 406.393 1152.58C411.33 1154.08 408.62 1158.94 409.509 1162.94C410.967 1169.51 411.162 1177.49 416.563 1182.23C418.694 1184.1 421.239 1184.91 423.517 1186.52C426.165 1188.39 428.692 1189.92 431.634 1191.32C434.434 1192.65 438.644 1192.63 441.662 1192.33C446.424 1191.86 449.228 1189.12 452.552 1186C456.518 1182.28 458.859 1178.61 461.126 1173.74C462.543 1170.69 462.505 1166.96 464.161 1164.08C467.066 1159.02 471.355 1158.24 476.064 1155.52C480.753 1152.81 481.141 1148.53 480.486 1143.76C479.525 1136.76 473.936 1127.58 466.826 1125.42C464.953 1124.85 462.817 1124.36 461.041 1123.52C458.182 1122.18 455.72 1120.04 452.849 1118.64Z" fill="#37804F"/>
<path d="M445.914 1115.37C447.98 1116.88 450.564 1117.53 452.849 1118.64C455.72 1120.04 458.182 1122.18 461.041 1123.52C462.817 1124.36 464.953 1124.85 466.826 1125.42C473.936 1127.58 479.526 1136.76 480.486 1143.76C481.141 1148.53 480.753 1152.81 476.064 1155.52C471.355 1158.24 467.066 1159.02 464.161 1164.08C462.505 1166.96 462.543 1170.69 461.126 1173.74C458.859 1178.61 456.518 1182.28 452.552 1186C449.228 1189.12 446.424 1191.86 441.662 1192.33C438.644 1192.63 434.434 1192.65 431.634 1191.32C428.692 1189.92 426.165 1188.39 423.517 1186.52C421.239 1184.91 418.694 1184.1 416.563 1182.23C411.162 1177.49 410.967 1169.51 409.509 1162.94C408.62 1158.94 411.33 1154.08 406.393 1152.58C400.169 1150.69 398.241 1144.99 396.552 1139.18C395.69 1136.21 395.75 1132.4 395.656 1129.32C395.485 1123.77 395.645 1117.85 396.737 1112.4C397.198 1110.1 397.477 1107.73 398.464 1105.58C399.29 1103.79 400.584 1102.08 401.189 1100.19C402.129 1097.26 404.473 1093.42 407.037 1091.56C410.729 1088.87 416.646 1088.98 420.408 1091.48C424.302 1094.06 428.353 1096.96 432.029 1099.92C435.411 1102.66 438.063 1106.02 441.123 1109.07C444.145 1112.08 447.38 1114.73 448.833 1118.68" stroke="#37804F" stroke-width="8.69522" stroke-linecap="round"/>
<circle cx="435.748" cy="1159.11" r="11.9559" transform="rotate(61.0604 435.748 1159.11)" fill="#33302C"/>
<path d="M335.431 1811.06C336.453 1809.56 337.263 1807.87 338.296 1806.36C341.316 1805.11 343.843 1802.88 346.58 1800.83C350.032 1798.23 353.744 1796.09 356.931 1793.13C360.394 1789.92 363.835 1786.32 366.95 1782.84C369.96 1779.47 370.916 1773.63 368.782 1769.59C367.301 1766.79 363.836 1763.92 361.07 1762.57C359.292 1761.7 357.785 1760.18 356.123 1759.1C354.137 1757.82 351.837 1757.2 349.627 1756.42C344.388 1754.56 338.546 1753.56 333.028 1752.93C329.973 1752.59 326.205 1751.98 323.147 1752.41C317.158 1753.25 311.232 1754.35 308.472 1760.24C306.283 1764.91 301.867 1761.53 297.777 1761.84C291.068 1762.35 283.14 1761.4 277.679 1766.07C275.523 1767.91 274.361 1770.31 272.441 1772.34C270.207 1774.69 268.335 1776.97 266.531 1779.69C264.814 1782.27 264.234 1786.44 264.098 1789.47C263.885 1794.25 266.192 1797.41 268.803 1801.15C271.918 1805.61 275.215 1808.45 279.72 1811.39C282.535 1813.22 286.232 1813.72 288.848 1815.77C293.437 1819.37 293.596 1823.72 295.615 1828.77C297.624 1833.8 301.806 1834.8 306.625 1834.83C313.69 1834.88 323.573 1830.66 326.725 1823.93C327.556 1822.16 328.353 1820.11 329.432 1818.48C331.169 1815.84 333.639 1813.71 335.431 1811.06Z" fill="#37804F"/>
<path d="M339.656 1804.67C337.872 1806.5 336.859 1808.96 335.431 1811.06C333.639 1813.71 331.169 1815.84 329.432 1818.48C328.353 1820.11 327.556 1822.16 326.725 1823.93C323.573 1830.66 313.69 1834.88 306.625 1834.83C301.806 1834.8 297.624 1833.8 295.614 1828.77C293.596 1823.72 293.437 1819.37 288.848 1815.77C286.232 1813.72 282.535 1813.22 279.72 1811.39C275.215 1808.45 271.918 1805.61 268.803 1801.15C266.192 1797.41 263.885 1794.25 264.098 1789.47C264.234 1786.44 264.814 1782.27 266.531 1779.69C268.335 1776.97 270.207 1774.69 272.441 1772.34C274.361 1770.31 275.523 1767.91 277.679 1766.07C283.14 1761.4 291.068 1762.35 297.777 1761.84C301.867 1761.53 306.283 1764.91 308.472 1760.24C311.232 1754.35 317.158 1753.25 323.147 1752.41C326.205 1751.98 329.973 1752.59 333.028 1752.93C338.546 1753.56 344.388 1754.56 349.627 1756.42C351.837 1757.2 354.137 1757.82 356.123 1759.1C357.785 1760.18 359.292 1761.7 361.07 1762.57C363.836 1763.92 367.301 1766.79 368.782 1769.59C370.916 1773.63 369.96 1779.47 366.95 1782.84C363.835 1786.32 360.394 1789.92 356.931 1793.13C353.744 1796.09 350.032 1798.23 346.58 1800.83C343.171 1803.39 340.087 1806.21 335.97 1807.08" stroke="#37804F" stroke-width="8.69522" stroke-linecap="round"/>
<circle cx="297.823" cy="1788.36" r="11.9559" transform="rotate(159.272 297.823 1788.36)" fill="#33302C"/>
<path d="M683.704 1450.56C683.229 1449.44 682.574 1448.37 682.1 1447.24C682.494 1445.09 682.162 1442.87 682.001 1440.59C681.798 1437.71 681.942 1434.85 681.438 1431.98C680.891 1428.87 680.121 1425.64 679.295 1422.62C678.498 1419.71 675.566 1417.06 672.525 1416.79C670.413 1416.6 667.546 1417.51 665.785 1418.57C664.653 1419.25 663.25 1419.55 662.044 1420.09C660.602 1420.74 659.423 1421.81 658.181 1422.76C655.236 1425.03 652.552 1427.94 650.2 1430.81C648.897 1432.4 647.19 1434.3 646.322 1436.17C644.621 1439.84 643.084 1443.56 645.389 1447.25C647.218 1450.17 643.721 1451.43 642.409 1453.83C640.258 1457.78 636.85 1461.89 637.489 1466.65C637.741 1468.53 638.669 1470.05 639.108 1471.87C639.618 1473.97 640.22 1475.85 641.088 1477.85C641.914 1479.75 644.044 1481.59 645.696 1482.76C648.302 1484.62 650.916 1484.47 653.96 1484.36C657.592 1484.23 660.383 1483.41 663.669 1481.95C665.722 1481.04 667.341 1479.14 669.442 1478.42C673.126 1477.14 675.63 1478.64 679.196 1479.34C682.747 1480.03 684.824 1478.05 686.591 1475.35C689.182 1471.41 690.399 1464.33 687.766 1460.11C687.072 1459.01 686.215 1457.82 685.686 1456.62C684.836 1454.68 684.536 1452.52 683.704 1450.56Z" fill="#37804F"/>
<path d="M681.645 1445.87C682.025 1447.53 683.041 1448.99 683.704 1450.56C684.536 1452.52 684.836 1454.68 685.686 1456.62C686.215 1457.82 687.072 1459.01 687.766 1460.11C690.399 1464.33 689.182 1471.41 686.591 1475.35C684.824 1478.05 682.747 1480.03 679.196 1479.34C675.63 1478.64 673.126 1477.14 669.442 1478.42C667.341 1479.14 665.722 1481.04 663.669 1481.95C660.383 1483.41 657.592 1484.23 653.96 1484.36C650.916 1484.47 648.302 1484.62 645.696 1482.76C644.044 1481.59 641.914 1479.75 641.088 1477.85C640.22 1475.85 639.618 1473.97 639.108 1471.87C638.669 1470.05 637.741 1468.53 637.489 1466.65C636.85 1461.89 640.258 1457.78 642.409 1453.83C643.721 1451.43 647.218 1450.17 645.389 1447.25C643.084 1443.56 644.621 1439.84 646.322 1436.17C647.19 1434.3 648.897 1432.4 650.2 1430.81C652.552 1427.94 655.236 1425.03 658.181 1422.76C659.423 1421.81 660.602 1420.74 662.044 1420.09C663.25 1419.55 664.653 1419.25 665.785 1418.57C667.546 1417.51 670.413 1416.6 672.525 1416.79C675.566 1417.06 678.498 1419.71 679.295 1422.62C680.121 1425.64 680.891 1428.87 681.438 1431.98C681.942 1434.85 681.798 1437.71 682.001 1440.59C682.202 1443.43 682.668 1446.18 681.664 1448.81" stroke="#37804F" stroke-width="5.81192" stroke-linecap="round"/>
<circle cx="657.311" cy="1463.43" r="7.99138" transform="rotate(102.153 657.311 1463.43)" fill="#33302C"/>
<path d="M827.524 404.094C826.035 405.141 824.679 406.436 823.179 407.484C819.911 407.584 816.76 408.771 813.473 409.725C809.326 410.929 805.096 411.619 801.069 413.258C796.692 415.038 792.201 417.184 788.054 419.34C784.048 421.423 781.086 426.547 781.653 431.08C782.046 434.227 784.271 438.135 786.38 440.377C787.736 441.817 788.606 443.776 789.78 445.37C791.183 447.274 793.117 448.662 794.907 450.178C799.149 453.771 804.257 456.778 809.197 459.315C811.931 460.719 815.242 462.619 818.254 463.299C824.154 464.631 830.083 465.706 834.748 461.174C838.45 457.579 841.385 462.299 845.32 463.458C851.773 465.36 858.852 469.053 865.613 466.619C868.281 465.659 870.218 463.821 872.731 462.608C875.653 461.198 878.211 459.725 880.859 457.827C883.378 456.021 885.397 452.327 886.596 449.54C888.488 445.145 887.45 441.367 886.33 436.95C884.994 431.679 882.916 427.855 879.743 423.51C877.761 420.796 874.479 419.023 872.757 416.179C869.738 411.191 871.132 407.06 871.031 401.624C870.931 396.21 867.372 393.799 862.877 392.062C856.287 389.516 845.55 389.965 840.22 395.143C838.816 396.507 837.347 398.135 835.758 399.286C833.199 401.139 830.135 402.258 827.524 404.094Z" fill="#37804F"/>
<path d="M821.308 408.583C823.625 407.502 825.444 405.556 827.524 404.094C830.135 402.258 833.199 401.139 835.758 399.286C837.347 398.135 838.816 396.507 840.22 395.143C845.55 389.965 856.287 389.516 862.877 392.062C867.372 393.799 870.931 396.21 871.031 401.624C871.132 407.06 869.738 411.191 872.757 416.179C874.479 419.023 877.761 420.796 879.743 423.51C882.916 427.855 884.994 431.679 886.33 436.95C887.45 441.367 888.488 445.145 886.596 449.54C885.397 452.327 883.378 456.021 880.859 457.827C878.211 459.725 875.653 461.198 872.731 462.608C870.218 463.821 868.281 465.659 865.613 466.619C858.852 469.053 851.773 465.36 845.32 463.458C841.385 462.299 838.45 457.579 834.748 461.174C830.083 465.706 824.154 464.631 818.254 463.299C815.242 462.619 811.931 460.719 809.197 459.315C804.257 456.778 799.149 453.771 794.907 450.178C793.117 448.662 791.183 447.274 789.78 445.37C788.606 443.776 787.736 441.817 786.38 440.377C784.271 438.135 782.046 434.227 781.653 431.08C781.086 426.547 784.048 421.423 788.054 419.34C792.201 417.184 796.692 415.038 801.069 413.258C805.096 411.619 809.326 410.929 813.473 409.725C817.568 408.536 821.451 406.987 825.611 407.627" stroke="#37804F" stroke-width="8.69522" stroke-linecap="round"/>
<circle cx="854.661" cy="438.64" r="11.9559" fill="#33302C"/>
<path d="M518.372 327.398C517.988 329.177 517.871 331.049 517.48 332.836C515.148 335.127 513.638 338.136 511.871 341.068C509.642 344.766 507.003 348.144 505.156 352.08C503.149 356.357 501.306 360.981 499.723 365.379C498.194 369.627 499.495 375.401 502.987 378.346C505.411 380.391 509.697 381.752 512.768 381.967C514.741 382.105 516.709 382.954 518.653 383.328C520.976 383.775 523.338 383.482 525.681 383.381C531.235 383.143 537.028 381.886 542.378 380.397C545.34 379.573 549.061 378.722 551.735 377.178C556.972 374.154 562.057 370.921 562.409 364.425C562.688 359.273 568.047 360.748 571.725 358.93C577.756 355.949 585.461 353.858 588.776 347.483C590.084 344.967 590.261 342.303 591.283 339.707C592.473 336.688 593.353 333.871 594.01 330.68C594.635 327.643 593.611 323.56 592.601 320.7C591.008 316.187 587.683 314.116 583.863 311.631C579.305 308.666 575.184 307.268 569.905 306.228C566.607 305.579 562.994 306.504 559.8 305.583C554.197 303.968 552.418 299.987 548.655 296.063C544.908 292.154 540.658 292.797 536.177 294.571C529.609 297.172 522.027 304.788 521.625 312.208C521.519 314.163 521.545 316.355 521.158 318.279C520.536 321.376 519.044 324.277 518.372 327.398Z" fill="#37804F"/>
<path d="M516.852 334.913C517.82 332.547 517.836 329.883 518.372 327.398C519.044 324.277 520.536 321.376 521.158 318.279C521.545 316.355 521.519 314.163 521.625 312.208C522.027 304.788 529.609 297.172 536.177 294.571C540.658 292.797 544.908 292.154 548.655 296.063C552.418 299.987 554.197 303.968 559.8 305.583C562.994 306.504 566.607 305.579 569.905 306.228C575.184 307.268 579.305 308.666 583.863 311.631C587.683 314.116 591.008 316.187 592.601 320.7C593.611 323.56 594.635 327.643 594.01 330.68C593.353 333.871 592.473 336.688 591.283 339.707C590.261 342.303 590.084 344.967 588.776 347.483C585.461 353.858 577.756 355.949 571.725 358.93C568.047 360.748 562.688 359.273 562.409 364.425C562.057 370.921 556.972 374.154 551.735 377.178C549.061 378.722 545.34 379.573 542.378 380.397C537.028 381.886 531.235 383.143 525.681 383.381C523.338 383.482 520.976 383.775 518.653 383.328C516.709 382.954 514.741 382.105 512.768 381.967C509.697 381.752 505.411 380.391 502.987 378.346C499.495 375.401 498.194 369.627 499.723 365.379C501.306 360.981 503.149 356.357 505.156 352.08C507.003 348.144 509.642 344.766 511.871 341.068C514.073 337.416 515.874 333.643 519.364 331.29" stroke="#37804F" stroke-width="8.69522" stroke-linecap="round"/>
<circle cx="561.748" cy="334.361" r="11.9559" transform="rotate(-42.7286 561.748 334.361)" fill="#33302C"/>
<path d="M638.339 654.18C636.85 655.227 635.494 656.522 633.994 657.57C630.727 657.67 627.576 658.857 624.288 659.811C620.142 661.015 615.911 661.706 611.884 663.344C607.507 665.124 603.016 667.27 598.869 669.426C594.863 671.51 591.901 676.634 592.468 681.166C592.861 684.313 595.086 688.222 597.196 690.463C598.552 691.903 599.421 693.863 600.596 695.456C601.999 697.36 603.933 698.748 605.722 700.264C609.964 703.857 615.072 706.864 620.012 709.401C622.747 710.805 626.057 712.705 629.069 713.385C634.969 714.717 640.898 715.793 645.564 711.26C649.265 707.665 652.201 712.385 656.135 713.545C662.589 715.447 669.668 719.139 676.428 716.705C679.096 715.745 681.033 713.908 683.546 712.695C686.468 711.284 689.027 709.812 691.674 707.914C694.194 706.107 696.212 702.413 697.411 699.626C699.303 695.231 698.265 691.453 697.146 687.036C695.809 681.765 693.731 677.942 690.559 673.596C688.576 670.882 685.294 669.11 683.573 666.266C680.554 661.277 681.947 657.146 681.846 651.71C681.746 646.296 678.188 643.885 673.692 642.148C667.102 639.602 656.365 640.052 651.035 645.229C649.631 646.594 648.163 648.222 646.573 649.373C644.015 651.225 640.95 652.344 638.339 654.18Z" fill="#37804F"/>
<path d="M632.124 658.669C634.44 657.588 636.26 655.642 638.339 654.18C640.95 652.344 644.015 651.225 646.573 649.373C648.163 648.222 649.631 646.594 651.035 645.229C656.365 640.052 667.102 639.602 673.692 642.148C678.188 643.885 681.746 646.296 681.846 651.71C681.947 657.146 680.554 661.277 683.573 666.266C685.294 669.11 688.576 670.882 690.559 673.596C693.731 677.942 695.809 681.765 697.146 687.036C698.265 691.453 699.303 695.231 697.411 699.626C696.212 702.413 694.194 706.107 691.674 707.914C689.027 709.812 686.468 711.284 683.546 712.695C681.033 713.908 679.096 715.745 676.428 716.705C669.668 719.139 662.589 715.447 656.135 713.545C652.201 712.385 649.265 707.665 645.564 711.26C640.898 715.793 634.969 714.717 629.069 713.385C626.057 712.705 622.747 710.805 620.012 709.401C615.072 706.864 609.964 703.857 605.722 700.264C603.933 698.748 601.999 697.36 600.596 695.456C599.421 693.863 598.552 691.903 597.196 690.463C595.086 688.222 592.861 684.313 592.468 681.166C591.901 676.634 594.863 671.51 598.869 669.426C603.016 667.27 607.507 665.124 611.884 663.344C615.911 661.706 620.142 661.015 624.288 659.811C628.383 658.622 632.267 657.073 636.427 657.713" stroke="#37804F" stroke-width="8.69522" stroke-linecap="round"/>
<circle cx="665.477" cy="688.727" r="11.9559" fill="#33302C"/>
<path d="M677.526 854.366C676.437 850.195 676.492 847.416 673.435 844.539C672.314 843.978 670.356 840.341 670.115 839.014C669.695 836.705 668.551 835.264 668.654 832.693C668.943 825.46 675.765 829.549 679.305 830.94C684.199 832.862 689.294 834.196 694.047 836.517C696.55 837.74 698.595 839.368 701.165 840.448C706.413 842.655 709.938 846.32 714.446 849.585C722.641 855.523 733.416 857.073 742.786 860.316C752.36 863.63 762.802 866.748 769.294 875.217C774.001 881.357 772.212 890.466 765.284 893.996C759.769 896.805 753.072 898.289 747.01 899.467C742.125 900.417 737.053 899.832 732.109 900.238C725.669 900.766 720.196 903.121 715.402 907.276C713.15 909.228 709.196 909.053 706.424 909.083C701.407 909.136 697.076 908.056 692.347 906.48C687.252 904.781 683.455 901.954 678.694 899.574C674.453 897.453 670.474 895.596 667.193 892.057C661.306 885.705 657.726 876.055 661.058 867.488C662.87 862.827 668.203 861.76 672.426 860.051C675.141 858.952 678.459 857.946 677.526 854.366Z" fill="#59A08F" stroke="#59A08F" stroke-width="8.69522" stroke-linecap="round"/>
<circle cx="699.053" cy="876.422" r="11.9559" fill="#33302C"/>
<path d="M716.399 508.392C715.311 504.221 715.365 501.441 712.309 498.565C711.187 498.004 709.23 494.366 708.988 493.04C708.569 490.731 707.425 489.289 707.528 486.718C707.817 479.486 714.638 483.574 718.179 484.965C723.073 486.888 728.167 488.222 732.92 490.543C735.424 491.766 737.469 493.394 740.038 494.474C745.287 496.681 748.811 500.345 753.319 503.611C761.514 509.549 772.29 511.098 781.66 514.342C791.234 517.656 801.675 520.774 808.168 529.243C812.875 535.382 811.085 544.492 804.157 548.022C798.642 550.831 791.946 552.314 785.883 553.493C780.999 554.443 775.927 553.858 770.982 554.263C764.542 554.791 759.07 557.147 754.275 561.302C752.024 563.254 748.069 563.079 745.298 563.108C740.281 563.162 735.95 562.082 731.22 560.505C726.126 558.807 722.329 555.98 717.568 553.599C713.326 551.479 709.347 549.622 706.067 546.083C700.18 539.731 696.599 530.081 699.931 521.513C701.744 516.852 707.077 515.785 711.299 514.076C714.014 512.977 717.333 511.972 716.399 508.392Z" fill="#59A08F" stroke="#59A08F" stroke-width="8.69522" stroke-linecap="round"/>
<circle cx="737.926" cy="530.448" r="11.9559" fill="#33302C"/>
<path d="M661.396 1338.68C659.762 1341.3 658.288 1342.64 658.297 1345.64C658.557 1346.5 657.628 1349.31 657.057 1350.09C656.062 1351.45 655.875 1352.75 654.487 1353.97C650.581 1357.38 649.349 1351.81 648.33 1349.29C646.92 1345.79 645.106 1342.49 643.973 1338.87C643.377 1336.96 643.217 1335.1 642.513 1333.23C641.077 1329.41 641.249 1325.77 640.728 1321.82C639.782 1314.63 635.283 1308.26 632.357 1301.79C629.367 1295.17 625.848 1288.21 627.057 1280.66C627.934 1275.19 633.556 1271.63 638.804 1273.5C642.981 1274.98 647.05 1277.74 650.649 1280.31C653.548 1282.39 655.742 1285.31 658.387 1287.69C661.833 1290.78 665.754 1292.47 670.277 1292.91C672.401 1293.12 674.257 1295.27 675.637 1296.7C678.136 1299.28 679.706 1302.07 681.215 1305.3C682.84 1308.79 683.238 1312.16 684.344 1315.81C685.329 1319.06 686.322 1322.04 686.096 1325.49C685.69 1331.68 682.431 1338.3 676.333 1340.78C673.015 1342.14 669.834 1339.89 666.865 1338.53C664.956 1337.66 662.799 1336.43 661.396 1338.68Z" fill="#59A08F" stroke="#59A08F" stroke-width="6.22929" stroke-linecap="round"/>
<circle cx="662.272" cy="1316.61" r="8.56528" transform="rotate(-133.42 662.272 1316.61)" fill="#33302C"/>
<path d="M224.001 847.888C222.913 843.717 222.967 840.937 219.911 838.06C218.789 837.499 216.832 833.862 216.591 832.535C216.171 830.226 215.027 828.785 215.13 826.214C215.419 818.981 222.241 823.07 225.781 824.461C230.675 826.383 235.769 827.717 240.522 830.038C243.026 831.261 245.071 832.889 247.641 833.97C252.889 836.176 256.413 839.841 260.921 843.107C269.116 849.044 279.892 850.594 289.262 853.837C298.836 857.151 309.277 860.269 315.77 868.738C320.477 874.878 318.687 883.988 311.759 887.517C306.244 890.326 299.548 891.81 293.485 892.989C288.601 893.938 283.529 893.354 278.584 893.759C272.144 894.287 266.672 896.642 261.877 900.798C259.626 902.749 255.671 902.574 252.9 902.604C247.883 902.657 243.552 901.577 238.822 900.001C233.728 898.303 229.931 895.475 225.17 893.095C220.928 890.974 216.949 889.117 213.669 885.578C207.782 879.226 204.201 869.576 207.533 861.009C209.346 856.348 214.679 855.281 218.901 853.572C221.616 852.473 224.935 851.467 224.001 847.888Z" fill="#59A08F" stroke="#59A08F" stroke-width="8.69522" stroke-linecap="round"/>
<circle cx="245.529" cy="869.943" r="11.9559" fill="#33302C"/>
<path d="M465.017 170.193C463.929 166.022 463.983 163.242 460.927 160.365C459.805 159.804 457.848 156.167 457.606 154.84C457.187 152.531 456.043 151.09 456.146 148.519C456.435 141.287 463.256 145.375 466.797 146.766C471.691 148.688 476.785 150.022 481.538 152.344C484.042 153.566 486.087 155.194 488.656 156.275C493.905 158.481 497.429 162.146 501.937 165.412C510.132 171.349 520.908 172.899 530.278 176.142C539.852 179.457 550.293 182.574 556.786 191.043C561.493 197.183 559.703 206.293 552.775 209.822C547.26 212.632 540.564 214.115 534.501 215.294C529.617 216.243 524.544 215.659 519.6 216.064C513.16 216.592 507.688 218.947 502.893 223.103C500.642 225.054 496.687 224.879 493.916 224.909C488.899 224.962 484.568 223.882 479.838 222.306C474.744 220.608 470.947 217.781 466.186 215.4C461.944 213.279 457.965 211.422 454.685 207.883C448.798 201.531 445.217 191.881 448.549 183.314C450.362 178.653 455.695 177.586 459.917 175.877C462.632 174.778 465.951 173.772 465.017 170.193Z" fill="#59A08F" stroke="#59A08F" stroke-width="8.69522" stroke-linecap="round"/>
<circle cx="486.545" cy="192.248" r="11.9559" fill="#33302C"/>
<path d="M721.582 1789.92C720.494 1785.75 720.548 1782.97 717.492 1780.09C716.37 1779.53 714.413 1775.9 714.172 1774.57C713.752 1772.26 712.608 1770.82 712.711 1768.25C713 1761.02 719.822 1765.1 723.362 1766.5C728.256 1768.42 733.35 1769.75 738.103 1772.07C740.607 1773.3 742.652 1774.92 745.222 1776C750.47 1778.21 753.994 1781.88 758.502 1785.14C766.697 1791.08 777.473 1792.63 786.843 1795.87C796.417 1799.19 806.858 1802.3 813.351 1810.77C818.058 1816.91 816.268 1826.02 809.34 1829.55C803.825 1832.36 797.129 1833.84 791.066 1835.02C786.182 1835.97 781.11 1835.39 776.165 1835.79C769.725 1836.32 764.253 1838.68 759.458 1842.83C757.207 1844.78 753.252 1844.61 750.481 1844.64C745.464 1844.69 741.133 1843.61 736.403 1842.04C731.309 1840.34 727.512 1837.51 722.751 1835.13C718.509 1833.01 714.53 1831.15 711.25 1827.61C705.363 1821.26 701.782 1811.61 705.114 1803.04C706.927 1798.38 712.26 1797.32 716.482 1795.61C719.197 1794.51 722.516 1793.5 721.582 1789.92Z" fill="#59A08F" stroke="#59A08F" stroke-width="8.69522" stroke-linecap="round"/>
<circle cx="743.109" cy="1811.98" r="11.9559" fill="#33302C"/>
<path d="M187.719 1376.57C186.631 1372.4 186.685 1369.62 183.629 1366.74C182.507 1366.18 180.55 1362.54 180.309 1361.21C179.889 1358.91 178.745 1357.46 178.848 1354.89C179.137 1347.66 185.959 1351.75 189.499 1353.14C194.393 1355.06 199.487 1356.4 204.24 1358.72C206.744 1359.94 208.789 1361.57 211.359 1362.65C216.607 1364.86 220.131 1368.52 224.639 1371.79C232.834 1377.72 243.61 1379.27 252.98 1382.52C262.554 1385.83 272.995 1388.95 279.488 1397.42C284.195 1403.56 282.405 1412.67 275.477 1416.2C269.962 1419.01 263.266 1420.49 257.203 1421.67C252.319 1422.62 247.247 1422.03 242.302 1422.44C235.862 1422.97 230.39 1425.32 225.595 1429.48C223.344 1431.43 219.389 1431.25 216.618 1431.28C211.601 1431.34 207.27 1430.26 202.54 1428.68C197.446 1426.98 193.649 1424.16 188.888 1421.77C184.646 1419.65 180.667 1417.8 177.387 1414.26C171.5 1407.91 167.919 1398.26 171.251 1389.69C173.064 1385.03 178.397 1383.96 182.619 1382.25C185.334 1381.15 188.653 1380.15 187.719 1376.57Z" fill="#59A08F" stroke="#59A08F" stroke-width="8.69522" stroke-linecap="round"/>
<circle cx="209.246" cy="1398.62" r="11.9559" fill="#33302C"/>
</svg>
