<svg width="28" height="30" viewBox="0 0 28 30" fill="none" xmlns="http://www.w3.org/2000/svg">
<path id="Vector" d="M26 14.1888L14.6533 25.7819C13.2633 27.2021 11.378 28 9.41216 28C7.44633 28 5.56102 27.2021 4.17097 25.7819C2.78092 24.3616 2 22.4354 2 20.4269C2 18.4183 2.78092 16.4921 4.17097 15.0718L15.5176 3.47875C16.4443 2.53192 17.7012 2 19.0117 2C20.3223 2 21.5792 2.53192 22.5059 3.47875C23.4326 4.42557 23.9532 5.70975 23.9532 7.04876C23.9532 8.38778 23.4326 9.67195 22.5059 10.6188L11.1469 22.2119C10.6835 22.6853 10.0551 22.9512 9.39981 22.9512C8.74454 22.9512 8.1161 22.6853 7.65275 22.2119C7.1894 21.7384 6.92909 21.0964 6.92909 20.4269C6.92909 19.7573 7.1894 19.1153 7.65275 18.6418L18.1351 7.94442" stroke="#23657D" stroke-width="3" stroke-linecap="round" stroke-linejoin="round"/>
</svg>
