<svg width="22" height="26" viewBox="0 0 22 26" fill="none" xmlns="http://www.w3.org/2000/svg">
<g id="Vector">
<path d="M20 25.375C21.1046 25.375 22 24.4796 22 23.375V22.625C22 21.1663 21.4205 19.7674 20.3891 18.7359C19.3576 17.7045 17.9587 17.125 16.5 17.125H5.5C4.04131 17.125 2.64236 17.7045 1.61091 18.7359C0.579462 19.7674 0 21.1663 0 22.625V23.375C0 24.4796 0.895431 25.375 2 25.375H20Z" fill="#23657D"/>
<path d="M16.5 6.125C16.5 9.16257 14.0376 11.625 11 11.625C7.96243 11.625 5.5 9.16257 5.5 6.125C5.5 3.08743 7.96243 0.625 11 0.625C14.0376 0.625 16.5 3.08743 16.5 6.125Z" fill="#23657D"/>
</g>
</svg>
