<svg width="178" height="178" viewBox="0 0 178 178" fill="none" xmlns="http://www.w3.org/2000/svg">
<circle cx="89" cy="89" r="85" fill="white" fill-opacity="0.5" stroke="#23657D" stroke-width="8"/>
<path d="M84.5156 58.5681C71.1532 71.3832 62.422 82.7373 49.0288 95.5147C44.9278 98.8658 44.5957 107.858 47.8947 111.75C48.4345 112.386 48.992 113.77 49.2286 114.582C49.5103 115.549 50.8102 116.508 51.3123 117.51C52.8625 120.604 55.3722 121.741 58.251 123.535C65.7307 128.195 75.8701 126.687 83.9833 124.73C90.5334 123.151 95.0887 120.223 100.136 115.858C104.728 111.886 108.916 107.606 112.5 102.682C114.743 99.5985 117.093 96.5997 119.118 93.3643C120.924 90.4804 121.956 87.0465 123.006 83.8273C125.264 76.9074 124.261 69.6226 124.63 62.4751C124.809 59.0121 125.736 54.7762 124.723 51.3769C123.815 48.3313 120.764 45.4813 118.325 43.6078C115.78 41.6533 113.013 40.1673 109.844 39.4466C107.175 38.8394 101.976 39.0827 99.693 40.7185C97.6697 42.1684 95.7327 44.3351 94.1871 46.2753C90.8392 50.4779 88.4596 54.7857 84.5156 58.5681Z" fill="#23657D" stroke="#23657D" stroke-width="6.71039" stroke-linecap="round"/>
<circle cx="89.1313" cy="89.0047" r="8.80739" transform="rotate(-70.2171 89.1313 89.0047)" fill="#33302C" stroke="#23657D" stroke-width="0.838799"/>
</svg>
