<svg width="201" height="201" viewBox="0 0 201 201" fill="none" xmlns="http://www.w3.org/2000/svg">
<circle cx="100.5" cy="100.5" r="96.5" fill="white" fill-opacity="0.5" stroke="#23657D" stroke-width="8"/>
<path d="M105.655 57.74C109.865 56.8836 115.301 56.3005 118.99 58.7497C118.8 59.0438 120.693 58.8994 120.966 59.2396C121.319 59.6815 122.66 60.1403 123.239 60.6667C124.85 62.1308 127.273 63.2267 128.706 65.1172C130.635 67.664 131.538 69.1013 131.415 72.4219C131.291 75.7653 128.467 78.1852 126.287 80.4522C124.42 82.394 126.571 87.5928 127.496 89.4985C129.288 93.1865 131.488 96.5611 133.495 100.093C136.152 104.77 139.462 110.013 140.799 115.283C142.256 121.025 140.325 128.839 136.204 133.036C131.474 137.854 126.207 143.311 119.417 145.034C116.819 145.693 114.277 144.665 111.726 144.332C106.852 143.696 102.179 141.464 97.3583 140.97C85.9905 139.804 75.6804 136.489 66.011 130.327C58.7389 125.693 54.9129 120.705 53.2398 112.235C52.5102 108.541 53.5212 102.687 55.2474 99.3429C57.465 95.0463 64.9837 95.8407 69.0586 95.0616C75.1033 93.906 81.3096 92.4946 87.2236 90.7804C91.2363 89.6173 97.0674 88.4736 100.309 85.6768C102.368 83.9008 102.145 79.5894 101.107 77.2836C99.4866 73.682 97.8904 70.1278 97.8904 66.0847C97.8904 61.3481 101.34 58.6174 105.655 57.74Z" fill="#23657D"/>
<path d="M119.224 58.9111C115.534 56.2757 109.955 56.8653 105.655 57.74C101.34 58.6174 97.8904 61.3481 97.8904 66.0847C97.8904 70.1278 99.4866 73.682 101.107 77.2836C102.145 79.5894 102.368 83.9008 100.309 85.6768C97.0674 88.4736 91.2363 89.6173 87.2236 90.7804C81.3096 92.4946 75.1033 93.906 69.0586 95.0616C64.9837 95.8407 57.465 95.0463 55.2474 99.3429C53.5212 102.687 52.5102 108.541 53.2398 112.235C54.9129 120.705 58.7389 125.693 66.011 130.327C75.6804 136.489 85.9905 139.804 97.3583 140.97C102.179 141.464 106.852 143.696 111.726 144.332C114.277 144.665 116.819 145.693 119.417 145.034C126.207 143.311 131.474 137.854 136.204 133.036C140.325 128.839 142.256 121.025 140.799 115.283C139.462 110.013 136.152 104.77 133.495 100.093C131.488 96.5611 129.288 93.1865 127.496 89.4985C126.571 87.5928 124.42 82.394 126.287 80.4522C128.467 78.1852 131.291 75.7653 131.415 72.4219C131.538 69.1013 130.635 67.664 128.706 65.1172C127.273 63.2267 124.85 62.1308 123.239 60.6667C122.66 60.1403 121.319 59.6815 120.966 59.2396C120.653 58.8488 118.202 59.0974 119.224 58.5865" stroke="#23657D" stroke-width="6.71039" stroke-linecap="round"/>
<circle cx="100.812" cy="110.482" r="9.22679" fill="#33302C"/>
</svg>
