<svg width="26" height="24" viewBox="0 0 26 24" fill="none" xmlns="http://www.w3.org/2000/svg">
<path id="Vector" d="M17.4 22V4.22222C17.4 3.63285 17.1682 3.06762 16.7556 2.65087C16.3431 2.23413 15.7835 2 15.2 2H10.8C10.2165 2 9.65695 2.23413 9.24437 2.65087C8.83179 3.06762 8.6 3.63285 8.6 4.22222V22M4.2 6.44444H21.8C23.015 6.44444 24 7.43937 24 8.66667V19.7778C24 21.0051 23.015 22 21.8 22H4.2C2.98497 22 2 21.0051 2 19.7778V8.66667C2 7.43937 2.98497 6.44444 4.2 6.44444Z" stroke="#23657D" stroke-width="3" stroke-linecap="round" stroke-linejoin="round"/>
</svg>
